<svg width="62" height="50" viewBox="0 0 62 50" fill="none" xmlns="http://www.w3.org/2000/svg">
<mask id="path-1-inside-1_189_13" fill="white">
<path d="M48.4863 7.94824H54.25C58.53 7.94824 61.9997 11.4183 62 15.6982V41.5322C61.9999 45.8124 58.5302 49.2822 54.25 49.2822H7.75C3.46985 49.2822 9.55547e-05 45.8124 0 41.5322V15.6982C0.000253056 11.4183 3.46995 7.94824 7.75 7.94824H14.3086L19.0771 0H43.7188L48.4863 7.94824Z"/>
</mask>
<path d="M48.4863 7.94824L47.6288 8.46263L47.9201 8.94824H48.4863V7.94824ZM62 15.6982L63 15.6982L63 15.6982L62 15.6982ZM62 41.5322L63 41.5322V41.5322H62ZM0 41.5322L-1 41.5322L-1 41.5322L0 41.5322ZM0 15.6982L-1 15.6982V15.6982H0ZM14.3086 7.94824V8.94824H14.8748L15.1661 8.46271L14.3086 7.94824ZM19.0771 0V-1H18.5109L18.2196 -0.514465L19.0771 0ZM43.7188 0L44.5763 -0.514387L44.285 -1H43.7188V0ZM48.4863 7.94824V8.94824H54.25V7.94824V6.94824H48.4863V7.94824ZM54.25 7.94824V8.94824C57.9777 8.94824 60.9998 11.9705 61 15.6983L62 15.6982L63 15.6982C62.9997 10.866 59.0824 6.94824 54.25 6.94824V7.94824ZM62 15.6982H61V41.5322H62H63V15.6982H62ZM62 41.5322L61 41.5322C60.9999 45.2601 57.9778 48.2822 54.25 48.2822V49.2822V50.2822C59.0825 50.2822 62.9999 46.3646 63 41.5322L62 41.5322ZM54.25 49.2822V48.2822H7.75V49.2822V50.2822H54.25V49.2822ZM7.75 49.2822V48.2822C4.02216 48.2822 1.00008 45.2601 1 41.5322L0 41.5322L-1 41.5322C-0.999892 46.3646 2.91755 50.2822 7.75 50.2822V49.2822ZM0 41.5322H1V15.6982H0H-1V41.5322H0ZM0 15.6982L1 15.6983C1.00022 11.9705 4.02229 8.94824 7.75 8.94824V7.94824V6.94824C2.91761 6.94824 -0.999714 10.866 -1 15.6982L0 15.6982ZM7.75 7.94824V8.94824H14.3086V7.94824V6.94824H7.75V7.94824ZM14.3086 7.94824L15.1661 8.46271L19.9347 0.514465L19.0771 0L18.2196 -0.514465L13.4511 7.43378L14.3086 7.94824ZM19.0771 0V1H43.7188V0V-1H19.0771V0ZM43.7188 0L42.8612 0.514387L47.6288 8.46263L48.4863 7.94824L49.3439 7.43385L44.5763 -0.514387L43.7188 0Z" fill="white" mask="url(#path-1-inside-1_189_13)"/>
</svg>
