<svg width="79" height="42" viewBox="0 0 79 42" fill="none" xmlns="http://www.w3.org/2000/svg">
<path d="M54.25 0L54.6484 0.00976562C54.9098 0.0230029 55.1679 0.0484001 55.4219 0.0869141C55.4756 0.0950564 55.5287 0.105996 55.582 0.115234C55.6509 0.127176 55.7198 0.138595 55.7881 0.152344C55.8349 0.161772 55.8812 0.173325 55.9277 0.183594C56.0115 0.202091 56.095 0.221002 56.1777 0.242188C56.2045 0.249047 56.2311 0.256534 56.2578 0.263672C56.3476 0.287698 56.4369 0.312703 56.5254 0.339844C56.5664 0.352413 56.6068 0.366655 56.6475 0.379883C56.7333 0.40779 56.8188 0.436004 56.9033 0.466797C56.9249 0.474667 56.9463 0.483155 56.9678 0.491211C57.0591 0.525421 57.1496 0.561113 57.2393 0.598633C57.2786 0.615082 57.3175 0.632339 57.3564 0.649414C57.4289 0.681148 57.501 0.713205 57.5723 0.74707C57.6239 0.771589 57.6746 0.797624 57.7256 0.823242C57.7818 0.851523 57.8381 0.87958 57.8936 0.90918C57.9439 0.936029 57.9933 0.964268 58.043 0.992188C58.1052 1.02718 58.1674 1.06199 58.2285 1.09863C58.2699 1.12345 58.3107 1.14924 58.3516 1.1748C58.4109 1.21193 58.47 1.24941 58.5283 1.28809C58.5764 1.31995 58.6236 1.35284 58.6709 1.38574C58.7261 1.42416 58.7808 1.46313 58.835 1.50293C58.8736 1.53132 58.9121 1.55978 58.9502 1.58887C59.0082 1.63322 59.0653 1.67867 59.1221 1.72461C59.1704 1.76376 59.2182 1.80347 59.2656 1.84375C59.3105 1.88187 59.3545 1.92085 59.3984 1.95996C59.4398 1.99674 59.4809 2.03364 59.5215 2.07129C59.5708 2.11706 59.6199 2.16294 59.668 2.20996C59.7119 2.25294 59.7549 2.29681 59.7979 2.34082C59.8419 2.38599 59.8858 2.4313 59.9287 2.47754C59.9631 2.51452 59.9966 2.55219 60.0303 2.58984C60.0785 2.64388 60.1261 2.69852 60.1729 2.75391C60.204 2.79082 60.2351 2.82774 60.2656 2.86523C60.318 2.92965 60.3686 2.99542 60.4189 3.06152C60.4439 3.09426 60.4688 3.12701 60.4932 3.16016C60.5333 3.21463 60.5726 3.26965 60.6113 3.3252C60.6449 3.37341 60.6784 3.4217 60.7109 3.4707C60.7483 3.52704 60.7844 3.58424 60.8203 3.6416C60.8513 3.69112 60.8822 3.74075 60.9121 3.79102C60.9428 3.84262 60.9724 3.8949 61.002 3.94727C61.0304 3.99763 61.0596 4.04758 61.0869 4.09863C61.1245 4.16879 61.1599 4.2401 61.1953 4.31152C61.2135 4.34829 61.2323 4.38478 61.25 4.42188C61.2816 4.48824 61.3111 4.55565 61.3408 4.62305C61.3629 4.67302 61.3852 4.72291 61.4062 4.77344C61.4327 4.83705 61.4576 4.90136 61.4824 4.96582C61.5021 5.01683 61.5224 5.06761 61.541 5.11914C61.5682 5.19437 61.5933 5.27039 61.6182 5.34668C61.6312 5.38668 61.6448 5.42651 61.6572 5.4668C61.682 5.54713 61.7034 5.62854 61.7256 5.70996C61.7374 5.75328 61.7507 5.79623 61.7617 5.83984C61.7805 5.91388 61.7969 5.98861 61.8135 6.06348C61.824 6.11067 61.8361 6.15756 61.8457 6.20508C61.8581 6.26624 61.868 6.32797 61.8789 6.38965C61.8911 6.45875 61.9037 6.52793 61.9141 6.59766C61.9379 6.75724 61.9558 6.91845 61.9697 7.08105C61.9886 7.30158 62 7.52459 62 7.75V15.8037L78.5 6.27734V35.7227L62 26.1953V33.583C62 37.8632 58.5302 41.333 54.25 41.333H7.75C3.46979 41.333 0 37.8632 0 33.583V7.75C0 3.46979 3.46979 0 7.75 0H54.25ZM7.75 1C4.02208 1 1 4.02208 1 7.75V33.583C1 37.3109 4.02208 40.333 7.75 40.333H54.25C57.9779 40.333 61 37.3109 61 33.583V7.75C61 7.52189 60.9879 7.29651 60.9658 7.07422C60.9389 6.80345 60.8949 6.53773 60.8369 6.27734C60.7981 6.10316 60.7531 5.93152 60.7012 5.7627C59.9808 3.4216 58.0229 1.62277 55.5898 1.13281C55.3996 1.09451 55.2064 1.06589 55.0107 1.04395C54.9847 1.04102 54.9588 1.0368 54.9326 1.03418C54.7081 1.01164 54.4804 1 54.25 1H7.75ZM62.5 16.6699L62 16.958V25.04L62.5 25.3291L77.5 33.9902V8.00879L62.5 16.6699Z" fill="white"/>
</svg>
